<svg width="56" height="56" viewBox="0 0 56 56" fill="none" xmlns="http://www.w3.org/2000/svg">
    <g clip-path="url(#clip0_3693_42654)">
        <rect x="2" y="2" width="52" height="52" rx="8" fill="#252525" />
        <g filter="url(#filter0_dd_3693_42654)">
            <g clip-path="url(#clip1_3693_42654)">
                <path
                    d="M2 6C2 4.34315 3.34315 3 5 3H51C52.6569 3 54 4.34315 54 6V50C54 51.6569 52.6569 53 51 53H5C3.34314 53 2 51.6569 2 50V6Z"
                    fill="#252525" />
                <rect x="2" y="3" width="52" height="50" rx="3" fill="#252525" />
                <path
                    d="M18.265 12.9032C18.265 16.0713 15.594 18.6396 12.2991 18.6396C9.00427 18.6396 6.33325 16.0713 6.33325 12.9032C6.33325 9.73504 9.00427 7.16675 12.2991 7.16675C15.594 7.16675 18.265 9.73504 18.265 12.9032Z"
                    fill="#00BB33" />
                <path
                    d="M33.9658 12.9032C33.9658 16.0713 31.2948 18.6396 27.9999 18.6396C24.705 18.6396 22.034 16.0713 22.034 12.9032C22.034 9.73504 24.705 7.16675 27.9999 7.16675C31.2948 7.16675 33.9658 9.73504 33.9658 12.9032Z"
                    fill="#FFDD66" />
                <path
                    d="M49.6666 12.9032C49.6666 16.0713 46.9956 18.6396 43.7007 18.6396C40.4058 18.6396 37.7348 16.0713 37.7348 12.9032C37.7348 9.73504 40.4058 7.16675 43.7007 7.16675C46.9956 7.16675 49.6666 9.73504 49.6666 12.9032Z"
                    fill="#00BB33" />
                <path
                    d="M18.265 27.5209C18.265 30.6891 15.594 33.2574 12.2991 33.2574C9.00427 33.2574 6.33325 30.6891 6.33325 27.5209C6.33325 24.3528 9.00427 21.7845 12.2991 21.7845C15.594 21.7845 18.265 24.3528 18.265 27.5209Z"
                    fill="#00BB33" />
                <path
                    d="M33.9658 27.5209C33.9658 30.6891 31.2948 33.2574 27.9999 33.2574C24.705 33.2574 22.034 30.6891 22.034 27.5209C22.034 24.3528 24.705 21.7845 27.9999 21.7845C31.2948 21.7845 33.9658 24.3528 33.9658 27.5209Z"
                    fill="#00BB33" />
                <path
                    d="M49.6666 27.5209C49.6666 30.6891 46.9956 33.2574 43.7007 33.2574C40.4058 33.2574 37.7348 30.6891 37.7348 27.5209C37.7348 24.3528 40.4058 21.7845 43.7007 21.7845C46.9956 21.7845 49.6666 24.3528 49.6666 27.5209Z"
                    fill="#FFDD66" />
                <path
                    d="M18.265 42.1387C18.265 45.3068 15.594 47.8751 12.2991 47.8751C9.00427 47.8751 6.33325 45.3068 6.33325 42.1387C6.33325 38.9705 9.00427 36.4022 12.2991 36.4022C15.594 36.4022 18.265 38.9705 18.265 42.1387Z"
                    fill="#FFDD66" />
                <path
                    d="M33.9658 42.1387C33.9658 45.3068 31.2948 47.8751 27.9999 47.8751C24.705 47.8751 22.034 45.3068 22.034 42.1387C22.034 38.9705 24.705 36.4022 27.9999 36.4022C31.2948 36.4022 33.9658 38.9705 33.9658 42.1387Z"
                    fill="#00BB33" />
            </g>
        </g>
    </g>
    <defs>
        <filter id="filter0_dd_3693_42654" x="-19" y="-12" width="94" height="97" filterUnits="userSpaceOnUse"
            color-interpolation-filters="sRGB">
            <feFlood flood-opacity="0" result="BackgroundImageFix" />
            <feColorMatrix in="SourceAlpha" type="matrix" values="0 0 0 0 0 0 0 0 0 0 0 0 0 0 0 0 0 0 127 0"
                result="hardAlpha" />
            <feOffset dy="11" />
            <feGaussianBlur stdDeviation="10.5" />
            <feColorMatrix type="matrix" values="0 0 0 0 0 0 0 0 0 0 0 0 0 0 0 0 0 0 0.1 0" />
            <feBlend mode="normal" in2="BackgroundImageFix" result="effect1_dropShadow_3693_42654" />
            <feColorMatrix in="SourceAlpha" type="matrix" values="0 0 0 0 0 0 0 0 0 0 0 0 0 0 0 0 0 0 127 0"
                result="hardAlpha" />
            <feOffset />
            <feGaussianBlur stdDeviation="7.5" />
            <feColorMatrix type="matrix" values="0 0 0 0 0 0 0 0 0 0 0 0 0 0 0 0 0 0 0.05 0" />
            <feBlend mode="normal" in2="effect1_dropShadow_3693_42654" result="effect2_dropShadow_3693_42654" />
            <feBlend mode="normal" in="SourceGraphic" in2="effect2_dropShadow_3693_42654" result="shape" />
        </filter>
        <clipPath id="clip0_3693_42654">
            <rect x="2" y="2" width="52" height="52" rx="8" fill="white" />
        </clipPath>
        <clipPath id="clip1_3693_42654">
            <path
                d="M2 6C2 4.34315 3.34315 3 5 3H51C52.6569 3 54 4.34315 54 6V50C54 51.6569 52.6569 53 51 53H5C3.34314 53 2 51.6569 2 50V6Z"
                fill="white" />
        </clipPath>
    </defs>
</svg>